<svg preserveAspectRatio="none" width="100%" height="100%" overflow="visible" style="display: block;" viewBox="0 0 161.94 164.686" fill="none" xmlns="http://www.w3.org/2000/svg">
<g id="Group 2147239782">
<path id="&#60;Path&#62;" d="M36.0897 38.8248C73.3002 1.6143 123.541 -8.43402 148.317 16.3424C173.14 41.1188 163.093 91.4055 125.883 128.616C88.6721 165.826 38.3843 175.875 13.6079 151.098C-11.2144 126.276 -1.12077 76.0352 36.0897 38.8248Z" fill="var(--fill-0, black)" fill-opacity="0.01"/>
<g id="&#60;Path&#62;_2" filter="url(#filter1_f_0_14)">
<path d="M40.0885 38.744C74.0959 4.96458 120.012 -4.15722 142.656 18.3346C165.341 40.8265 156.159 86.4765 122.152 120.256C88.1447 154.035 42.1856 163.157 19.542 140.665C-3.14359 118.132 6.08118 72.5235 40.0885 38.744Z" fill="url(#paint0_linear_0_14)"/>
</g>
<g id="&#60;Path&#62;_3" filter="url(#filter2_f_0_14)">
<path d="M40.1857 40.8483C69.1379 10.0562 108.229 1.74104 127.506 22.2438C146.82 42.7466 139.003 84.3596 110.051 115.152C81.0983 145.944 41.971 154.259 22.6933 133.756C3.37992 113.215 11.2334 71.6404 40.1857 40.8483Z" fill="url(#paint1_radial_0_14)"/>
</g>
</g>
<defs>
<filter id="filter1_f_0_14" x="1.10547" y="0" width="160" height="159" filterUnits="userSpaceOnUse" color-interpolation-filters="sRGB">
<feFlood flood-opacity="0" result="BackgroundImageFix"/>
<feBlend mode="normal" in="SourceGraphic" in2="BackgroundImageFix" result="shape"/>
<feGaussianBlur stdDeviation="3" result="effect1_foregroundBlur_0_14"/>
</filter>
<filter id="filter2_f_0_14" x="11.1055" y="10" width="128" height="136" filterUnits="userSpaceOnUse" color-interpolation-filters="sRGB">
<feFlood flood-opacity="0" result="BackgroundImageFix"/>
<feBlend mode="normal" in="SourceGraphic" in2="BackgroundImageFix" result="shape"/>
<feGaussianBlur stdDeviation="0.5" result="effect1_foregroundBlur_0_14"/>
</filter>
<linearGradient id="paint0_linear_0_14" x1="81.1055" y1="6" x2="106.364" y2="49.1841" gradientUnits="userSpaceOnUse">
<stop stop-color="white"/>
<stop offset="1" stop-color="white" stop-opacity="0"/>
</linearGradient>
<radialGradient id="paint1_radial_0_14" cx="0" cy="0" r="1" gradientTransform="matrix(167.5 284.616 -344.278 232.838 102.606 108.552)" gradientUnits="userSpaceOnUse">
<stop offset="0.186447" stop-color="white" stop-opacity="0"/>
<stop offset="0.468586" stop-color="white"/>
</radialGradient>
</defs>
</svg>
