<svg preserveAspectRatio="none" width="100%" height="100%" overflow="visible" style="display: block;" viewBox="0 0 16 16" fill="none" xmlns="http://www.w3.org/2000/svg">
<g id="folder-code" clip-path="url(#clip0_0_467)">
<path id="Vector" fill-rule="evenodd" clip-rule="evenodd" d="M6.72667 2.7031C6.64625 2.67536 6.5418 2.66667 6.01486 2.66667H3.46667C3.0823 2.66667 2.83412 2.66719 2.64522 2.68262C2.46411 2.69742 2.39697 2.72253 2.36401 2.73933C2.23856 2.80324 2.13658 2.90523 2.07266 3.03067C2.05587 3.06364 2.03075 3.13078 2.01595 3.31189C2.00238 3.47799 2.00034 3.68993 2.00005 4H7.58798L7.32669 3.47742C7.09104 3.00612 7.03654 2.91658 6.97577 2.85705C6.90517 2.78791 6.82008 2.73532 6.72667 2.7031ZM9.07869 4L8.51926 2.88114C8.50679 2.85621 8.49447 2.83148 8.48225 2.80695C8.30575 2.45279 8.15053 2.14133 7.90873 1.9045C7.69693 1.69706 7.44168 1.53931 7.16143 1.44264C6.84146 1.33228 6.49348 1.33274 6.09777 1.33326C6.07036 1.3333 6.04273 1.33333 6.01486 1.33333L3.44097 1.33333C3.08954 1.33332 2.78636 1.33331 2.53665 1.35371C2.27308 1.37525 2.01094 1.42279 1.75869 1.55132C1.38236 1.74307 1.0764 2.04903 0.884654 2.42535C0.756124 2.67761 0.70858 2.93975 0.687046 3.20331C0.666644 3.45303 0.666654 3.7562 0.666666 4.10764L0.666666 10.8275C0.666658 11.3642 0.666651 11.8071 0.696129 12.1679C0.726746 12.5426 0.792455 12.8871 0.957316 13.2106C1.21298 13.7124 1.62093 14.1204 2.12269 14.376C2.44625 14.5409 2.79072 14.6066 3.16545 14.6372C3.52624 14.6667 3.96914 14.6667 4.50578 14.6667H11.4942C12.0309 14.6667 12.4738 14.6667 12.8345 14.6372C13.2093 14.6066 13.5537 14.5409 13.8773 14.376C14.3791 14.1204 14.787 13.7124 15.0427 13.2106C15.2075 12.8871 15.2733 12.5426 15.3039 12.1679C15.3333 11.8071 15.3333 11.3642 15.3333 10.8275V7.83912C15.3333 7.30248 15.3333 6.85958 15.3039 6.49878C15.2733 6.12405 15.2075 5.77958 15.0427 5.45603C14.787 4.95426 14.3791 4.54631 13.8773 4.29065C13.5537 4.12579 13.2093 4.06008 12.8345 4.02946C12.4738 3.99998 12.0308 3.99999 11.4942 4L9.07869 4ZM8.65325 5.33333C8.66252 5.33353 8.67181 5.33353 8.68111 5.33333H11.4667C12.0377 5.33333 12.4259 5.33385 12.726 5.35837C13.0183 5.38225 13.1677 5.42553 13.272 5.47866C13.5229 5.60649 13.7268 5.81046 13.8547 6.06135C13.9078 6.16561 13.9511 6.31508 13.975 6.60736C13.9995 6.90742 14 7.29561 14 7.86667V10.8C14 11.3711 13.9995 11.7592 13.975 12.0593C13.9511 12.3516 13.9078 12.5011 13.8547 12.6053C13.7268 12.8562 13.5229 13.0602 13.272 13.188C13.1677 13.2411 13.0183 13.2844 12.726 13.3083C12.4259 13.3328 12.0377 13.3333 11.4667 13.3333H4.53333C3.96228 13.3333 3.57408 13.3328 3.27403 13.3083C2.98175 13.2844 2.83228 13.2411 2.72801 13.188C2.47713 13.0602 2.27316 12.8562 2.14532 12.6053C2.0922 12.5011 2.04891 12.3516 2.02503 12.0593C2.00052 11.7592 2 11.3711 2 10.8V5.33333H8.65325ZM7.13807 7.19526C7.39842 7.45561 7.39842 7.87772 7.13807 8.13807L5.94281 9.33333L7.13807 10.5286C7.39842 10.7889 7.39842 11.2111 7.13807 11.4714C6.87772 11.7318 6.45561 11.7318 6.19526 11.4714L4.5286 9.80474C4.26825 9.54439 4.26825 9.12228 4.5286 8.86193L6.19526 7.19526C6.45561 6.93491 6.87772 6.93491 7.13807 7.19526ZM8.86193 7.19526C9.12228 6.93491 9.54439 6.93491 9.80474 7.19526L11.4714 8.86193C11.7318 9.12228 11.7318 9.54439 11.4714 9.80474L9.80474 11.4714C9.54439 11.7318 9.12228 11.7318 8.86193 11.4714C8.60158 11.2111 8.60158 10.7889 8.86193 10.5286L10.0572 9.33333L8.86193 8.13807C8.60158 7.87772 8.60158 7.45561 8.86193 7.19526Z" fill="var(--fill-0, black)"/>
</g>
<defs>
<clipPath id="clip0_0_467">
<rect width="16" height="16" fill="white"/>
</clipPath>
</defs>
</svg>
