<svg preserveAspectRatio="none" width="100%" height="100%" overflow="visible" style="display: block;" viewBox="0 0 16 16" fill="none" xmlns="http://www.w3.org/2000/svg">
<g id="inbox-01" clip-path="url(#clip0_0_661)">
<path id="Vector" fill-rule="evenodd" clip-rule="evenodd" d="M5.87606 1.99995C5.90949 1.99998 5.94337 2 5.97771 2H10.0223C10.0566 2 10.0905 1.99998 10.1239 1.99995C10.7424 1.99954 11.2087 1.99922 11.6335 2.14575C12.0071 2.27463 12.3475 2.48497 12.6298 2.76155C12.9509 3.07597 13.1591 3.49315 13.4353 4.04649C13.4503 4.07641 13.4654 4.10672 13.4807 4.13744L14.9251 7.02619C14.9309 7.03785 14.9367 7.04935 14.9424 7.06071C15.0518 7.27942 15.1346 7.44484 15.1941 7.62177C15.2467 7.77814 15.2847 7.93904 15.3076 8.10241C15.3335 8.28728 15.3334 8.47225 15.3333 8.71679C15.3333 8.7295 15.3333 8.74238 15.3333 8.75542V10.1609C15.3333 10.6975 15.3333 11.1404 15.3039 11.5012C15.2733 11.8759 15.2075 12.2204 15.0427 12.544C14.787 13.0457 14.3791 13.4537 13.8773 13.7093C13.5537 13.8742 13.2093 13.9399 12.8345 13.9705C12.4738 14 12.0309 14 11.4942 14H4.50578C3.96914 14 3.52624 14 3.16545 13.9705C2.79072 13.9399 2.44625 13.8742 2.12269 13.7093C1.62093 13.4537 1.21298 13.0457 0.957316 12.544C0.792455 12.2204 0.726746 11.8759 0.696129 11.5012C0.666651 11.1404 0.666658 10.6975 0.666666 10.1609L0.666667 8.75542C0.666667 8.74237 0.666663 8.7295 0.66666 8.71679C0.666591 8.47225 0.66654 8.28728 0.692421 8.10241C0.715294 7.93904 0.753278 7.77813 0.805885 7.62177C0.865412 7.44485 0.948175 7.27944 1.0576 7.06075C1.06328 7.04938 1.06905 7.03786 1.07488 7.02619L1.67117 7.32433L1.67506 7.32628M1.67117 7.32433L1.07488 7.02619L2.51926 4.13744C2.53461 4.10673 2.54974 4.07642 2.56467 4.04651C2.84089 3.49315 3.04912 3.07598 3.37015 2.76155C3.65254 2.48497 3.99288 2.27463 4.36654 2.14575C4.79135 1.99922 5.2576 1.99954 5.87606 1.99995M2.41202 7.33333L3.71183 4.73372C4.0545 4.04838 4.1625 3.85182 4.30311 3.71411C4.4443 3.57582 4.61447 3.47065 4.80131 3.40621C4.98736 3.34203 5.21146 3.33333 5.97771 3.33333H10.0223C10.7885 3.33333 11.0126 3.34203 11.1987 3.40621C11.3855 3.47065 11.5557 3.57582 11.6969 3.71411C11.8375 3.85182 11.9455 4.04838 12.2882 4.73373L13.588 7.33333H12.0787C11.3694 7.33333 10.7209 7.73409 10.4037 8.36852C10.3124 8.55124 10.1256 8.66667 9.92131 8.66667H6.07869C5.8744 8.66667 5.68765 8.55124 5.59628 8.36852C5.27907 7.73409 4.63063 7.33333 3.92131 7.33333H2.41202ZM2.00006 8.66667C2.00002 8.69401 2 8.72351 2 8.75542V10.1333C2 10.7044 2.00052 11.0926 2.02503 11.3926C2.04891 11.6849 2.0922 11.8344 2.14532 11.9387C2.27316 12.1895 2.47713 12.3935 2.72801 12.5213C2.83228 12.5745 2.98175 12.6178 3.27403 12.6416C3.57408 12.6661 3.96228 12.6667 4.53333 12.6667H11.4667C12.0377 12.6667 12.4259 12.6661 12.726 12.6416C13.0182 12.6178 13.1677 12.5745 13.272 12.5213C13.5229 12.3935 13.7268 12.1895 13.8547 11.9387C13.9078 11.8344 13.9511 11.6849 13.975 11.3926C13.9995 11.0926 14 10.7044 14 10.1333V8.75542C14 8.72351 14 8.69401 13.9999 8.66667H12.0787C11.8744 8.66667 11.6876 8.78209 11.5963 8.96481C11.2791 9.59924 10.6306 10 9.92131 10H6.07869C5.36937 10 4.72093 9.59924 4.40371 8.96481C4.31235 8.78209 4.1256 8.66667 3.92131 8.66667H2.00006Z" fill="var(--fill-0, black)"/>
</g>
<defs>
<clipPath id="clip0_0_661">
<rect width="16" height="16" fill="white"/>
</clipPath>
</defs>
</svg>
