<svg preserveAspectRatio="none" width="100%" height="100%" overflow="visible" style="display: block;" viewBox="0 0 182.426 182.358" fill="none" xmlns="http://www.w3.org/2000/svg">
<g id="Group 2147239781">
<path id="&#60;Path&#62;" d="M152.683 152.615C115.472 189.826 57.797 192.487 23.8901 158.534C-10.0627 124.627 -7.4014 66.9531 29.8091 29.7427C67.0195 -7.46781 124.695 -10.1292 158.602 23.8237C192.555 57.7306 189.893 115.405 152.683 152.615Z" fill="var(--fill-0, black)" fill-opacity="0.01"/>
<g id="&#60;Path&#62;_2" filter="url(#filter1_f_0_5)">
<path d="M144.925 145.971C111.053 179.844 58.5517 182.266 27.6865 151.359C-3.22049 120.494 -0.797881 67.9933 33.0745 34.1206C66.9469 0.247964 119.448 -2.17466 150.313 28.7326C181.22 59.598 178.798 112.099 144.925 145.971Z" fill="url(#paint0_linear_0_5)"/>
</g>
</g>
<defs>
<filter id="filter1_f_0_5" x="-2.23517e-08" y="1.0459" width="178" height="178" filterUnits="userSpaceOnUse" color-interpolation-filters="sRGB">
<feFlood flood-opacity="0" result="BackgroundImageFix"/>
<feBlend mode="normal" in="SourceGraphic" in2="BackgroundImageFix" result="shape"/>
<feGaussianBlur stdDeviation="3" result="effect1_foregroundBlur_0_5"/>
</filter>
<linearGradient id="paint0_linear_0_5" x1="89" y1="7.0459" x2="117.617" y2="55.6425" gradientUnits="userSpaceOnUse">
<stop stop-color="white"/>
<stop offset="1" stop-color="white" stop-opacity="0"/>
</linearGradient>
</defs>
</svg>
