<svg preserveAspectRatio="none" width="100%" height="100%" overflow="visible" style="display: block;" viewBox="0 0 16 16" fill="none" xmlns="http://www.w3.org/2000/svg">
<g id="paperclip">
<path id="Vector" fill-rule="evenodd" clip-rule="evenodd" d="M11.9804 2.78799C11.3295 2.13711 10.2742 2.13711 9.62333 2.78799L3.61292 8.79839C2.50644 9.90488 2.50644 11.6988 3.61292 12.8053C4.71941 13.9118 6.51337 13.9118 7.61986 12.8053L13.6303 6.79493C13.8906 6.53458 14.3127 6.53458 14.5731 6.79493C14.8334 7.05527 14.8334 7.47739 14.5731 7.73773L8.56267 13.7481C6.93548 15.3753 4.2973 15.3753 2.67011 13.7481C1.04293 12.121 1.04293 9.48277 2.67011 7.85559L8.68052 1.84518C9.85209 0.673605 11.7516 0.673605 12.9232 1.84518C14.0947 3.01675 14.0947 4.91625 12.9232 6.08782L7.14845 11.8625C6.43249 12.5785 5.27169 12.5785 4.55573 11.8625C3.83977 11.1466 3.83977 9.98576 4.55573 9.2698L9.62333 4.2022C9.88368 3.94185 10.3058 3.94185 10.5661 4.2022C10.8265 4.46255 10.8265 4.88466 10.5661 5.14501L5.49854 10.2126C5.30328 10.4079 5.30328 10.7245 5.49854 10.9197C5.6938 11.115 6.01038 11.115 6.20565 10.9197L11.9804 5.14501C12.6312 4.49414 12.6312 3.43886 11.9804 2.78799Z" fill="var(--fill-0, #1C1F23)" fill-opacity="0.8"/>
</g>
</svg>
