<svg preserveAspectRatio="none" width="100%" height="100%" overflow="visible" style="display: block;" viewBox="0 0 16 16" fill="none" xmlns="http://www.w3.org/2000/svg">
<g id="star-04" clip-path="url(#clip0_0_550)">
<path id="Vector" fill-rule="evenodd" clip-rule="evenodd" d="M8 0.666667C8.27585 0.666667 8.52321 0.836553 8.62223 1.09401L9.96353 4.5814C10.1638 5.1021 10.2267 5.25215 10.3128 5.37321C10.3992 5.49468 10.5053 5.60081 10.6268 5.68718C10.7479 5.77327 10.8979 5.8362 11.4186 6.03647L14.906 7.37777C15.1634 7.47679 15.3333 7.72415 15.3333 8C15.3333 8.27585 15.1634 8.52321 14.906 8.62223L11.4186 9.96353C10.8979 10.1638 10.7479 10.2267 10.6268 10.3128C10.5053 10.3992 10.3992 10.5053 10.3128 10.6268C10.2267 10.7479 10.1638 10.8979 9.96354 11.4186L8.62223 14.906C8.52321 15.1634 8.27585 15.3333 8 15.3333C7.72415 15.3333 7.47679 15.1634 7.37777 14.906L6.03647 11.4186C5.8362 10.8979 5.77327 10.7479 5.68718 10.6268C5.60081 10.5053 5.49468 10.3992 5.37321 10.3128C5.25215 10.2267 5.1021 10.1638 4.5814 9.96354L1.09401 8.62223C0.836553 8.52321 0.666667 8.27585 0.666667 8C0.666667 7.72415 0.836553 7.47679 1.09401 7.37777L4.5814 6.03647C5.1021 5.8362 5.25215 5.77327 5.37321 5.68718C5.49468 5.60081 5.60081 5.49468 5.68718 5.37321C5.77327 5.25215 5.8362 5.1021 6.03647 4.5814L7.37777 1.09401C7.47679 0.836553 7.72415 0.666667 8 0.666667ZM8 3.19045L7.28093 5.06004C7.27209 5.08303 7.26338 5.10571 7.25478 5.1281C7.09239 5.55094 6.96973 5.87035 6.77382 6.14587C6.60107 6.38881 6.38881 6.60107 6.14587 6.77382C5.87035 6.96973 5.55094 7.09239 5.1281 7.25478C5.10571 7.26338 5.08303 7.27209 5.06004 7.28093L3.19045 8L5.06004 8.71907C5.08303 8.72791 5.10571 8.73662 5.1281 8.74522C5.55094 8.90761 5.87035 9.03027 6.14587 9.22618C6.38881 9.39893 6.60107 9.61119 6.77382 9.85413C6.96973 10.1296 7.09239 10.4491 7.25478 10.8719C7.26338 10.8943 7.27209 10.917 7.28093 10.94L8 12.8095L8.71908 10.94C8.72792 10.917 8.73663 10.8943 8.74523 10.8719C8.90761 10.4491 9.03027 10.1296 9.22618 9.85413C9.39893 9.61119 9.61119 9.39893 9.85413 9.22618C10.1297 9.03027 10.4491 8.90761 10.8719 8.74522C10.8943 8.73662 10.917 8.72791 10.94 8.71907L12.8095 8L10.94 7.28093C10.917 7.27209 10.8943 7.26338 10.8719 7.25478C10.4491 7.09239 10.1297 6.96973 9.85413 6.77382C9.61119 6.60107 9.39893 6.38881 9.22618 6.14587C9.03027 5.87035 8.90761 5.55094 8.74522 5.1281C8.73662 5.10571 8.72791 5.08303 8.71907 5.06004L8 3.19045Z" fill="var(--fill-0, #1C1F23)" fill-opacity="0.8"/>
</g>
<defs>
<clipPath id="clip0_0_550">
<rect width="16" height="16" fill="white"/>
</clipPath>
</defs>
</svg>
