<svg preserveAspectRatio="none" width="100%" height="100%" overflow="visible" style="display: block;" viewBox="0 0 748.141 779.169" fill="none" xmlns="http://www.w3.org/2000/svg">
<path id="Union" d="M341.984 653.309C379.195 616.098 429.436 606.05 454.212 630.826C479.034 655.603 468.988 705.889 431.777 743.1C394.567 780.31 344.278 790.358 319.502 765.582C294.68 740.76 304.774 690.519 341.984 653.309ZM144.809 578.18C182.019 540.969 239.695 538.308 273.602 572.261C307.554 606.168 304.893 663.842 267.683 701.053C230.472 738.263 172.797 740.924 138.89 706.972C104.937 673.065 107.598 615.39 144.809 578.18ZM540.442 610.966C577.653 573.755 620.369 556.182 635.923 571.69C651.431 587.199 633.858 629.96 596.647 667.171C559.437 704.381 516.675 721.954 501.167 706.446C485.659 690.892 503.232 648.176 540.442 610.966ZM144.809 81.8788C182.019 44.6685 239.695 42.0074 273.602 75.9599C307.554 109.867 304.893 167.541 267.683 204.752C236.577 235.857 191.171 242.821 157.303 224.462C177.652 241.927 190.55 267.836 190.55 296.768C190.55 345.934 153.306 386.407 105.532 391.518C153.306 396.628 190.55 437.104 190.55 486.27C190.55 538.897 147.878 581.521 95.2979 581.521C42.6711 581.521 0.000248563 538.897 0 486.27C0 437.105 37.2426 396.629 85.0527 391.518C37.2428 386.406 0.000236639 345.933 0 296.768C0 244.141 42.671 201.516 95.2979 201.516C112.351 201.516 128.36 206.001 142.211 213.854C141.081 212.846 139.973 211.8 138.89 210.717C104.937 176.764 107.598 119.089 144.809 81.8788ZM671.942 478.688C709.153 441.478 742.694 414.683 746.869 418.858C751.044 423.08 724.293 456.62 687.083 493.83C649.873 531.04 616.333 557.789 612.112 553.614C607.937 549.439 634.732 515.899 671.942 478.688ZM666.385 282.455C703.595 245.245 739.613 220.927 746.862 228.177C754.112 235.426 729.793 271.444 692.583 308.654C655.373 345.865 619.355 370.136 612.105 362.933C604.903 355.683 629.175 319.665 666.385 282.455ZM535.41 109.088C572.621 71.8774 617.632 56.5523 635.939 74.8134C654.2 93.1205 638.876 138.131 601.666 175.342C564.456 212.552 519.49 227.877 501.183 209.57C482.876 191.263 498.2 146.298 535.41 109.088ZM338.398 34.0859C375.609 -3.12431 427.961 -11.1082 455.353 16.2831C482.744 43.6748 474.761 96.0268 437.551 133.237C400.34 170.448 347.988 178.385 320.597 151.039C293.205 123.647 301.188 71.2963 338.398 34.0859Z" fill="var(--fill-0, black)"/>
</svg>
