<svg preserveAspectRatio="none" width="100%" height="100%" overflow="visible" style="display: block;" viewBox="0 0 190.55 190.549" fill="none" xmlns="http://www.w3.org/2000/svg">
<g id="Group 2147239779">
<path id="&#60;Path&#62;" d="M190.55 95.2974C190.55 147.924 147.878 190.549 95.2974 190.549C42.6705 190.549 0 147.924 0 95.2974C0 42.6705 42.6705 0 95.2974 0C147.878 0 190.55 42.6705 190.55 95.2974Z" fill="var(--fill-0, black)" fill-opacity="0.01"/>
<g id="&#60;Path&#62;_2" filter="url(#filter1_f_0_25)">
<path d="M173 89.5475C173 135.67 135.602 173.027 89.5196 173.027C43.3969 173.027 6 135.67 6 89.5475C6 43.4245 43.3969 6.02734 89.5196 6.02734C135.602 6.02734 173 43.4245 173 89.5475Z" fill="url(#paint0_linear_0_25)"/>
</g>
<g id="&#60;Path&#62;_3" opacity="0.34" filter="url(#filter2_f_0_25)">
<path d="M159 84.5458C159 126.802 124.737 161.027 82.518 161.027C40.2618 161.027 6 126.802 6 84.5458C6 42.2894 40.2618 8.02734 82.518 8.02734C124.737 8.02734 159 42.2894 159 84.5458Z" fill="url(#paint1_linear_0_25)"/>
</g>
</g>
<defs>
<filter id="filter1_f_0_25" x="0" y="0.0273438" width="179" height="179" filterUnits="userSpaceOnUse" color-interpolation-filters="sRGB">
<feFlood flood-opacity="0" result="BackgroundImageFix"/>
<feBlend mode="normal" in="SourceGraphic" in2="BackgroundImageFix" result="shape"/>
<feGaussianBlur stdDeviation="3" result="effect1_foregroundBlur_0_25"/>
</filter>
<filter id="filter2_f_0_25" x="0" y="2.02734" width="165" height="165" filterUnits="userSpaceOnUse" color-interpolation-filters="sRGB">
<feFlood flood-opacity="0" result="BackgroundImageFix"/>
<feBlend mode="normal" in="SourceGraphic" in2="BackgroundImageFix" result="shape"/>
<feGaussianBlur stdDeviation="3" result="effect1_foregroundBlur_0_25"/>
</filter>
<linearGradient id="paint0_linear_0_25" x1="89.5" y1="6.02735" x2="107.61" y2="54.8216" gradientUnits="userSpaceOnUse">
<stop stop-color="white"/>
<stop offset="1" stop-color="white" stop-opacity="0"/>
</linearGradient>
<linearGradient id="paint1_linear_0_25" x1="82.5" y1="8.02735" x2="119.392" y2="42.1853" gradientUnits="userSpaceOnUse">
<stop stop-color="white"/>
<stop offset="1" stop-color="white" stop-opacity="0"/>
</linearGradient>
</defs>
</svg>
