<svg preserveAspectRatio="none" width="100%" height="100%" overflow="visible" style="display: block;" viewBox="0 0 12 12" fill="none" xmlns="http://www.w3.org/2000/svg">
<g id="search-md">
<path id="Vector" fill-rule="evenodd" clip-rule="evenodd" d="M5.5 2C3.567 2 2 3.567 2 5.5C2 7.433 3.567 9 5.5 9C6.44297 9 7.29885 8.62709 7.9282 8.02069C7.94135 8.00358 7.95577 7.98712 7.97145 7.97145C7.98712 7.95577 8.00358 7.94135 8.02069 7.9282C8.62709 7.29885 9 6.44297 9 5.5C9 3.567 7.433 2 5.5 2ZM9.01595 8.30884C9.63176 7.53901 10 6.56251 10 5.5C10 3.01472 7.98528 1 5.5 1C3.01472 1 1 3.01472 1 5.5C1 7.98528 3.01472 10 5.5 10C6.56251 10 7.53901 9.63176 8.30884 9.01595L10.1464 10.8536C10.3417 11.0488 10.6583 11.0488 10.8536 10.8536C11.0488 10.6583 11.0488 10.3417 10.8536 10.1464L9.01595 8.30884Z" fill="var(--fill-0, #1C1F23)" fill-opacity="0.6"/>
</g>
</svg>
