<svg preserveAspectRatio="none" width="100%" height="100%" overflow="visible" style="display: block;" viewBox="0 0 20.7817 21.6439" fill="none" xmlns="http://www.w3.org/2000/svg">
<g id="&#60;Group&#62;">
<path id="&#60;Path&#62;" d="M5.29328 8.24398C5.29328 9.70584 4.10796 10.8911 2.64737 10.8911C1.18551 10.8911 0.0002225 9.70584 0.0002225 8.24398C0.0002225 6.78212 1.18551 5.5981 2.64737 5.5981C4.10796 5.5981 5.29328 6.78212 5.29328 8.24398Z" fill="var(--fill-0, black)"/>
<path id="&#60;Path&#62;_2" d="M5.29306 13.5076C5.29306 14.9695 4.10773 16.1535 2.64715 16.1535C1.18529 16.1535 0 14.9695 0 13.5076C0 12.0457 1.18529 10.8605 2.64715 10.8605C4.10773 10.8605 5.29306 12.0457 5.29306 13.5076Z" fill="var(--fill-0, black)"/>
<path id="&#60;Path&#62;_3" d="M5.29328 8.24398C5.29328 9.70584 4.10796 10.8911 2.64737 10.8911C1.18551 10.8911 0.0002225 9.70584 0.0002225 8.24398C0.0002225 6.78212 1.18551 5.5981 2.64737 5.5981C4.10796 5.5981 5.29328 6.78212 5.29328 8.24398Z" fill="var(--fill-0, black)"/>
<path id="&#60;Path&#62;_4" d="M7.43578 5.68779C6.40216 6.72142 4.80007 6.79534 3.85821 5.85348C2.91507 4.91035 2.989 3.30829 4.02262 2.27466C5.05625 1.24104 6.65834 1.16711 7.6002 2.11024C8.54333 3.0521 8.46941 4.65417 7.43578 5.68779Z" fill="var(--fill-0, black)"/>
<path id="&#60;Path&#62;_5" d="M7.43578 19.4739C6.40216 20.5075 4.80007 20.5814 3.85821 19.6383C2.91507 18.6964 2.989 17.0944 4.02262 16.0608C5.05625 15.0271 6.65834 14.9532 7.6002 15.8964C8.54333 16.8382 8.46941 18.4403 7.43578 19.4739Z" fill="var(--fill-0, black)"/>
<path id="&#60;Path&#62;_6" d="M18.5107 7.84645C19.5443 6.81283 20.5448 6.13735 20.7462 6.33872C20.9476 6.54009 20.2721 7.54058 19.2385 8.57421C18.2048 9.60783 17.2043 10.282 17.003 10.0819C16.8029 9.88057 17.4771 8.88008 18.5107 7.84645Z" fill="var(--fill-0, black)"/>
<path id="&#60;Path&#62;_7" d="M18.6652 13.2974C19.6988 12.2637 20.6305 11.5194 20.7465 11.6354C20.8625 11.7527 20.1194 12.6843 19.0858 13.718C18.0521 14.7516 17.1205 15.4946 17.0032 15.3786C16.8873 15.2627 17.6316 14.331 18.6652 13.2974Z" fill="var(--fill-0, black)"/>
<path id="&#60;Path&#62;_8" d="M14.8726 3.03051C15.9062 1.99689 17.1565 1.57119 17.6651 2.07844C18.1723 2.58697 17.7467 3.83727 16.713 4.87089C15.6794 5.90451 14.4304 6.33021 13.9218 5.82168C13.4133 5.31315 13.839 4.06413 14.8726 3.03051Z" fill="var(--fill-0, black)"/>
<path id="&#60;Path&#62;_9" d="M15.0126 16.9717C16.0462 15.9381 17.2328 15.45 17.6649 15.8807C18.0956 16.3115 17.6075 17.4994 16.5739 18.533C15.5403 19.5666 14.3524 20.0547 13.9216 19.624C13.4908 19.1919 13.979 18.0053 15.0126 16.9717Z" fill="var(--fill-0, black)"/>
<path id="&#60;Path&#62;_10" d="M9.49999 18.1478C10.5336 17.1142 11.9292 16.8351 12.6174 17.5233C13.3069 18.2115 13.0279 19.6084 11.9942 20.642C10.9606 21.6756 9.56373 21.9547 8.8755 21.2665C8.18599 20.577 8.46637 19.1814 9.49999 18.1478Z" fill="var(--fill-0, black)"/>
<path id="&#60;Path&#62;_11" d="M9.39982 0.946829C10.4334 -0.0867949 11.8877 -0.308559 12.6486 0.45232C13.4094 1.2132 13.1877 2.66741 12.1541 3.70103C11.1204 4.73466 9.66621 4.95515 8.90533 4.19554C8.14445 3.43466 8.3662 1.98045 9.39982 0.946829Z" fill="var(--fill-0, black)"/>
</g>
</svg>
