<svg preserveAspectRatio="none" width="100%" height="100%" overflow="visible" style="display: block;" viewBox="0 0 12.2667 12.2667" fill="none" xmlns="http://www.w3.org/2000/svg">
<g id="Group">
<path id="Vector" fill-rule="evenodd" clip-rule="evenodd" d="M5.33333 11.4667C5.33333 11.6788 5.41762 11.8823 5.56765 12.0324C5.71768 12.1824 5.92116 12.2667 6.13333 12.2667C6.34551 12.2667 6.54899 12.1824 6.69902 12.0324C6.84905 11.8823 6.93333 11.6788 6.93333 11.4667V6.93333H11.4667C11.6788 6.93333 11.8823 6.84905 12.0324 6.69902C12.1824 6.54899 12.2667 6.34551 12.2667 6.13333C12.2667 5.92116 12.1824 5.71768 12.0324 5.56765C11.8823 5.41762 11.6788 5.33333 11.4667 5.33333H6.93333V0.8C6.93333 0.587827 6.84905 0.384344 6.69902 0.234315C6.54899 0.0842855 6.34551 0 6.13333 0C5.92116 0 5.71768 0.0842855 5.56765 0.234315C5.41762 0.384344 5.33333 0.587827 5.33333 0.8V5.33333H0.8C0.587827 5.33333 0.384344 5.41762 0.234315 5.56765C0.0842855 5.71768 0 5.92116 0 6.13333C0 6.34551 0.0842855 6.54899 0.234315 6.69902C0.384344 6.84905 0.587827 6.93333 0.8 6.93333H5.33333V11.4667Z" fill="var(--fill-0, #536471)" fill-opacity="0.64"/>
</g>
</svg>
